<?xml version="1.0" encoding="utf-8"?>
<!-- Generator: Adobe Illustrator 24.0.3, SVG Export Plug-In . SVG Version: 6.00 Build 0)  -->
<svg version="1.1" id="Layer_1" xmlns="http://www.w3.org/2000/svg" xmlns:xlink="http://www.w3.org/1999/xlink" x="0px" y="0px"
	 viewBox="0 0 309.3 81.59" style="enable-background:new 0 0 309.3 81.59;" xml:space="preserve">
<style type="text/css">
	.st0{fill:#5EB546;}
	.st1{fill:#D47097;}
	.st2{fill:#EB7424;}
	.st3{fill:#2C2969;}
	.st4{fill:#FFFFFF;}
</style>
<g>
	<rect y="35.63" class="st3" width="5.64" height="11.29"/>
	<rect x="8" y="28.09" class="st3" width="5.64" height="26.34"/>
	<rect x="15.99" y="20.05" class="st3" width="5.64" height="42.33"/>
	<rect x="23.99" y="14.23" class="st3" width="5.64" height="53.61"/>
	<rect x="31.98" y="11.41" class="st3" width="5.64" height="59.73"/>
	<g>
		<path class="st3" d="M95.8,11.89v23.02h8.72v4.86H89.43V11.89H95.8z"/>
		<path class="st3" d="M124.87,11.89v4.86h-10.83v6.33h10.12v4.86h-10.12v6.97h11.11v4.86h-17.48V11.89H124.87z"/>
		<path class="st3" d="M137.37,11.89l5.14,12.79h0.72l4.94-12.79h8.32v27.88h-5.97V21.13h-0.72l-5.22,13.02h-3.74l-5.22-13.02h-0.76
			v18.64h-5.89V11.89H137.37z"/>
		<path class="st3" d="M171.26,11.29c6.25,0,9.4,3.5,10.55,6.09v16.85c-1.16,2.63-4.26,6.13-10.55,6.13c-6.25,0-9.4-3.5-10.55-6.13
			V17.38C161.86,14.79,164.97,11.29,171.26,11.29z M171.26,35.38c2.23,0,3.62-1.16,4.18-2.43V18.7c-0.56-1.32-1.95-2.43-4.18-2.43
			c-2.19,0-3.62,1.11-4.18,2.43v14.26C167.63,34.23,169.07,35.38,171.26,35.38z"/>
		<path class="st3" d="M193.2,11.89l8.16,17.2h0.76v-17.2h5.89v27.88h-7.17l-8.16-17.2h-0.76v17.2h-5.89V11.89H193.2z"/>
		<path class="st3" d="M219,11.89v27.88h-6.37V11.89H219z"/>
		<path class="st3" d="M107.42,67.28v3.18h-4.67l-5.28-9.21H94.9v9.21h-5.71V45.48h10.53c3.14,0,5.92,1.57,7.42,4.25v7.24
			c-0.89,1.61-2.25,2.89-4.03,3.6L107.42,67.28z M94.9,57.08h3.53c1.57,0,2.71-0.64,3.32-1.75v-3.78c-0.61-1.14-1.86-1.75-3.32-1.75
			H94.9V57.08z"/>
		<path class="st3" d="M130.29,67.28v3.18h-5.25l-1.46-5.82h-7.74l-1.5,5.82h-4.67v-3.18l6.14-21.8h8.31L130.29,67.28z
			 M122.51,60.29l-2.43-9.71h-0.64l-2.5,9.71H122.51z"/>
		<path class="st3" d="M143.59,70.46h-10.35V45.48h10.35c4.64,0,7.28,2.57,8.31,4.92v15.13C150.87,67.89,148.23,70.46,143.59,70.46z
			 M142.45,49.8h-3.5v16.34h3.5c1.96,0,3.28-0.86,3.75-2.03V51.83C145.73,50.66,144.41,49.8,142.45,49.8z"/>
		<path class="st3" d="M161.39,45.48v24.98h-5.71V45.48H161.39z"/>
		<path class="st3" d="M174.59,44.95c5.6,0,8.42,3.14,9.46,5.46V65.5c-1.03,2.36-3.82,5.49-9.46,5.49c-5.6,0-8.42-3.14-9.46-5.49
			V50.41C166.17,48.09,168.95,44.95,174.59,44.95z M174.59,66.53c2,0,3.25-1.04,3.75-2.18V51.58c-0.5-1.18-1.75-2.18-3.75-2.18
			c-1.96,0-3.25,1-3.75,2.18v12.77C171.34,65.5,172.62,66.53,174.59,66.53z"/>
	</g>
	
		<rect x="71.96" y="35.63" transform="matrix(-1 -1.224647e-16 1.224647e-16 -1 149.5603 82.5469)" class="st3" width="5.64" height="11.29"/>
	
		<rect x="63.96" y="28.12" transform="matrix(-1 -1.224647e-16 1.224647e-16 -1 133.5678 82.5785)" class="st3" width="5.64" height="26.34"/>
	
		<rect x="55.97" y="20.17" transform="matrix(-1 -1.224647e-16 1.224647e-16 -1 117.5775 82.6708)" class="st3" width="5.64" height="42.33"/>
	
		<rect x="47.97" y="14.71" transform="matrix(-1 -1.224647e-16 1.224647e-16 -1 101.5873 83.0265)" class="st3" width="5.64" height="53.61"/>
	
		<rect x="39.98" y="11.41" transform="matrix(-1 -1.224647e-16 1.224647e-16 -1 85.5971 82.5522)" class="st3" width="5.64" height="59.73"/>
</g>
<rect x="228.99" y="0.6" width="80.31" height="80.31"/>
<g>
	<g>
		<path class="st4" d="M246.69,23.25v-2.56h10.25v2.56h-3.42v12.14h-3.36V23.25H246.69z"/>
		<path class="st4" d="M267.75,20.69v2.56h-5.71v3.34h5.33v2.56h-5.33v3.67h5.86v2.56h-9.22v-14.7H267.75z"/>
		<path class="st4" d="M272.63,30.66v1.28c0.25,0.55,0.99,1.13,2.14,1.13c1.13,0,1.83-0.61,2.12-1.13v-1.49
			c-0.23-0.46-0.65-0.82-1.74-1.09l-1.09-0.23c-3.15-0.67-4.14-1.72-4.68-2.65v-3.3c0.55-0.99,2.06-2.81,5.4-2.81
			c3.28,0,4.83,1.85,5.35,2.81v2.06h-3.23v-1.13c-0.25-0.55-0.99-1.11-2.12-1.11c-1.16,0-1.89,0.61-2.14,1.11v1.22
			c0.23,0.44,0.63,0.78,1.79,1.05l1.05,0.27c3.13,0.69,4.14,1.72,4.66,2.67v3.57c-0.57,1.01-2.08,2.81-5.35,2.81
			c-3.34,0-4.83-1.83-5.4-2.81v-2.23H272.63z"/>
		<path class="st4" d="M281.34,23.25v-2.56h10.25v2.56h-3.42v12.14h-3.36V23.25H281.34z"/>
		<path class="st4" d="M247.52,45.89l2.71,6.74h0.38l2.6-6.74h4.39v14.7h-3.15v-9.83h-0.38l-2.75,6.87h-1.97l-2.75-6.87h-0.4v9.83
			h-3.11v-14.7H247.52z"/>
		<path class="st4" d="M265.39,45.57c3.3,0,4.96,1.85,5.56,3.21v8.88c-0.61,1.39-2.25,3.23-5.56,3.23c-3.3,0-4.96-1.85-5.56-3.23
			v-8.88C260.44,47.42,262.08,45.57,265.39,45.57z M265.39,58.27c1.18,0,1.91-0.61,2.21-1.28v-7.52c-0.29-0.69-1.03-1.28-2.21-1.28
			c-1.15,0-1.91,0.59-2.2,1.28v7.52C263.48,57.67,264.24,58.27,265.39,58.27z"/>
		<path class="st4" d="M279.27,60.58h-6.09v-14.7h6.09c2.73,0,4.28,1.51,4.89,2.9v8.9C283.56,59.07,282,60.58,279.27,60.58z
			 M278.6,48.43h-2.06v9.62h2.06c1.16,0,1.93-0.5,2.21-1.2v-7.22C280.53,48.93,279.76,48.43,278.6,48.43z"/>
		<path class="st4" d="M295.47,45.89v2.56h-5.71v3.34h5.33v2.56h-5.33v3.67h5.86v2.56h-9.22v-14.7H295.47z"/>
	</g>
</g>
</svg>
