<?xml version="1.0" encoding="utf-8"?>
<!-- Generator: Adobe Illustrator 24.0.3, SVG Export Plug-In . SVG Version: 6.00 Build 0)  -->
<svg version="1.1" id="Layer_1" xmlns="http://www.w3.org/2000/svg" xmlns:xlink="http://www.w3.org/1999/xlink" x="0px" y="0px"
	 viewBox="0 0 309.59 80.31" style="enable-background:new 0 0 309.59 80.31;" xml:space="preserve">
<style type="text/css">
	.st0{fill:#5EB546;}
	.st1{fill:#D47097;}
	.st2{fill:#EB7424;}
	.st3{fill:#2C2969;}
	.st4{fill:#FFFFFF;}
</style>
<g>
	<rect x="0.29" y="35.04" class="st1" width="5.64" height="11.29"/>
	<rect x="8.28" y="27.5" class="st1" width="5.64" height="26.34"/>
	<rect x="16.28" y="19.45" class="st1" width="5.64" height="42.33"/>
	<rect x="24.27" y="13.63" class="st1" width="5.64" height="53.61"/>
	<rect x="32.27" y="10.81" class="st1" width="5.64" height="59.73"/>
	<g>
		<path class="st1" d="M96.09,11.29v23.02h8.72v4.86H89.72V11.29H96.09z"/>
		<path class="st1" d="M125.16,11.29v4.86h-10.83v6.33h10.12v4.86h-10.12v6.97h11.11v4.86h-17.48V11.29H125.16z"/>
		<path class="st1" d="M137.66,11.29l5.14,12.79h0.72l4.94-12.79h8.32v27.88h-5.97V20.53h-0.72l-5.22,13.02h-3.74l-5.22-13.02h-0.76
			v18.64h-5.89V11.29H137.66z"/>
		<path class="st1" d="M171.55,10.69c6.25,0,9.4,3.5,10.55,6.09v16.85c-1.16,2.63-4.26,6.13-10.55,6.13c-6.25,0-9.4-3.5-10.55-6.13
			V16.79C162.15,14.2,165.25,10.69,171.55,10.69z M171.55,34.79c2.23,0,3.62-1.16,4.18-2.43V18.1c-0.56-1.32-1.95-2.43-4.18-2.43
			c-2.19,0-3.62,1.11-4.18,2.43v14.26C167.92,33.63,169.36,34.79,171.55,34.79z"/>
		<path class="st1" d="M193.48,11.29l8.16,17.2h0.76v-17.2h5.89v27.88h-7.17l-8.16-17.2h-0.76v17.2h-5.89V11.29H193.48z"/>
		<path class="st1" d="M219.29,11.29v27.88h-6.37V11.29H219.29z"/>
		<path class="st1" d="M107.71,66.69v3.18h-4.67l-5.28-9.21h-2.57v9.21h-5.71V44.89H100c3.14,0,5.92,1.57,7.42,4.25v7.24
			c-0.89,1.61-2.25,2.89-4.03,3.6L107.71,66.69z M95.19,56.48h3.53c1.57,0,2.71-0.64,3.32-1.75v-3.78
			c-0.61-1.14-1.86-1.75-3.32-1.75h-3.53V56.48z"/>
		<path class="st1" d="M130.58,66.69v3.18h-5.25l-1.46-5.82h-7.74l-1.5,5.82h-4.67v-3.18l6.14-21.8h8.31L130.58,66.69z M122.8,59.69
			l-2.43-9.71h-0.64l-2.5,9.71H122.8z"/>
		<path class="st1" d="M143.88,69.86h-10.35V44.89h10.35c4.64,0,7.28,2.57,8.31,4.92v15.13C151.16,67.29,148.52,69.86,143.88,69.86z
			 M142.74,49.2h-3.5v16.34h3.5c1.96,0,3.28-0.86,3.75-2.03V51.24C146.02,50.06,144.7,49.2,142.74,49.2z"/>
		<path class="st1" d="M161.68,44.89v24.98h-5.71V44.89H161.68z"/>
		<path class="st1" d="M174.87,44.35c5.6,0,8.42,3.14,9.46,5.46V64.9c-1.03,2.36-3.82,5.49-9.46,5.49c-5.6,0-8.42-3.14-9.46-5.49
			V49.81C166.45,47.49,169.24,44.35,174.87,44.35z M174.87,65.94c2,0,3.25-1.04,3.75-2.18V50.99c-0.5-1.18-1.75-2.18-3.75-2.18
			c-1.96,0-3.25,1-3.75,2.18v12.77C171.63,64.9,172.91,65.94,174.87,65.94z"/>
	</g>
	
		<rect x="72.25" y="35.03" transform="matrix(-1 -1.224647e-16 1.224647e-16 -1 150.136 81.3539)" class="st1" width="5.64" height="11.29"/>
	
		<rect x="64.25" y="27.52" transform="matrix(-1 -1.224647e-16 1.224647e-16 -1 134.1435 81.3854)" class="st1" width="5.64" height="26.34"/>
	
		<rect x="56.25" y="19.58" transform="matrix(-1 -1.224647e-16 1.224647e-16 -1 118.1533 81.4778)" class="st1" width="5.64" height="42.33"/>
	
		<rect x="48.26" y="14.11" transform="matrix(-1 -1.224647e-16 1.224647e-16 -1 102.163 81.8335)" class="st1" width="5.64" height="53.61"/>
	
		<rect x="40.26" y="10.82" transform="matrix(-1 -1.224647e-16 1.224647e-16 -1 86.1728 81.3592)" class="st1" width="5.64" height="59.73"/>
</g>
<rect x="229.27" width="80.31" height="80.31"/>
<g>
	<g>
		<path class="st4" d="M246.98,22.65v-2.56h10.25v2.56h-3.42v12.14h-3.36V22.65H246.98z"/>
		<path class="st4" d="M268.04,20.09v2.56h-5.71v3.34h5.33v2.56h-5.33v3.67h5.86v2.56h-9.22v-14.7H268.04z"/>
		<path class="st4" d="M272.92,30.06v1.28c0.25,0.55,0.99,1.13,2.14,1.13c1.13,0,1.83-0.61,2.12-1.13v-1.49
			c-0.23-0.46-0.65-0.82-1.74-1.09l-1.09-0.23c-3.15-0.67-4.14-1.72-4.68-2.65v-3.3c0.55-0.99,2.06-2.81,5.4-2.81
			c3.28,0,4.83,1.85,5.35,2.81v2.06h-3.23v-1.13c-0.25-0.55-0.99-1.11-2.12-1.11c-1.16,0-1.89,0.61-2.14,1.11v1.22
			c0.23,0.44,0.63,0.78,1.79,1.05l1.05,0.27c3.13,0.69,4.14,1.72,4.66,2.67v3.57c-0.57,1.01-2.08,2.81-5.35,2.81
			c-3.34,0-4.83-1.83-5.4-2.81v-2.23H272.92z"/>
		<path class="st4" d="M281.63,22.65v-2.56h10.25v2.56h-3.42v12.14h-3.36V22.65H281.63z"/>
		<path class="st4" d="M247.81,45.29l2.71,6.74h0.38l2.6-6.74h4.39v14.7h-3.15v-9.83h-0.38l-2.75,6.87h-1.97l-2.75-6.87h-0.4v9.83
			h-3.11v-14.7H247.81z"/>
		<path class="st4" d="M265.68,44.98c3.3,0,4.96,1.85,5.56,3.21v8.88c-0.61,1.39-2.25,3.23-5.56,3.23c-3.3,0-4.96-1.85-5.56-3.23
			v-8.88C260.73,46.82,262.36,44.98,265.68,44.98z M265.68,57.68c1.18,0,1.91-0.61,2.21-1.28v-7.52c-0.29-0.69-1.03-1.28-2.21-1.28
			c-1.15,0-1.91,0.59-2.2,1.28v7.52C263.77,57.07,264.53,57.68,265.68,57.68z"/>
		<path class="st4" d="M279.56,59.99h-6.09v-14.7h6.09c2.73,0,4.28,1.51,4.89,2.9v8.9C283.85,58.48,282.29,59.99,279.56,59.99z
			 M278.89,47.83h-2.06v9.62h2.06c1.16,0,1.93-0.5,2.21-1.2v-7.22C280.82,48.34,280.05,47.83,278.89,47.83z"/>
		<path class="st4" d="M295.75,45.29v2.56h-5.71v3.34h5.33v2.56h-5.33v3.67h5.86v2.56h-9.22v-14.7H295.75z"/>
	</g>
</g>
</svg>
