<?xml version="1.0" encoding="utf-8"?>
<!-- Generator: Adobe Illustrator 24.0.3, SVG Export Plug-In . SVG Version: 6.00 Build 0)  -->
<svg version="1.1" id="Layer_1" xmlns="http://www.w3.org/2000/svg" xmlns:xlink="http://www.w3.org/1999/xlink" x="0px" y="0px"
	 viewBox="0 0 219 59.85" style="enable-background:new 0 0 219 59.85;" xml:space="preserve">
<style type="text/css">
	.st0{fill:#5EB546;}
	.st1{fill:#D47097;}
	.st2{fill:#EB7424;}
	.st3{fill:#2C2969;}
	.st4{fill:#FFFFFF;}
</style>
<g>
	<rect y="24.34" class="st1" width="5.64" height="11.29"/>
	<rect x="8" y="16.8" class="st1" width="5.64" height="26.34"/>
	<rect x="15.99" y="8.76" class="st1" width="5.64" height="42.33"/>
	<rect x="23.99" y="2.94" class="st1" width="5.64" height="53.61"/>
	<rect x="31.98" y="0.12" class="st1" width="5.64" height="59.73"/>
	<g>
		<path class="st1" d="M95.8,0.6v23.02h8.72v4.86H89.43V0.6H95.8z"/>
		<path class="st1" d="M124.87,0.6v4.86h-10.83v6.33h10.12v4.86h-10.12v6.97h11.11v4.86h-17.48V0.6H124.87z"/>
		<path class="st1" d="M137.37,0.6l5.14,12.79h0.72l4.94-12.79h8.32v27.88h-5.97V9.84h-0.72l-5.22,13.02h-3.74l-5.22-13.02h-0.76
			v18.64h-5.89V0.6H137.37z"/>
		<path class="st1" d="M171.26,0c6.25,0,9.4,3.5,10.55,6.09v16.85c-1.16,2.63-4.26,6.13-10.55,6.13c-6.25,0-9.4-3.5-10.55-6.13V6.09
			C161.86,3.5,164.97,0,171.26,0z M171.26,24.09c2.23,0,3.62-1.16,4.18-2.43V7.41c-0.56-1.32-1.95-2.43-4.18-2.43
			c-2.19,0-3.62,1.11-4.18,2.43v14.26C167.63,22.94,169.07,24.09,171.26,24.09z"/>
		<path class="st1" d="M193.2,0.6l8.16,17.2h0.76V0.6h5.89v27.88h-7.17l-8.16-17.2h-0.76v17.2h-5.89V0.6H193.2z"/>
		<path class="st1" d="M219,0.6v27.88h-6.37V0.6H219z"/>
		<path class="st1" d="M107.42,55.99v3.18h-4.67l-5.28-9.21H94.9v9.21h-5.71V34.19h10.53c3.14,0,5.92,1.57,7.42,4.25v7.24
			c-0.89,1.61-2.25,2.89-4.03,3.6L107.42,55.99z M94.9,45.79h3.53c1.57,0,2.71-0.64,3.32-1.75v-3.78c-0.61-1.14-1.86-1.75-3.32-1.75
			H94.9V45.79z"/>
		<path class="st1" d="M130.29,55.99v3.18h-5.25l-1.46-5.82h-7.74l-1.5,5.82h-4.67v-3.18l6.14-21.8h8.31L130.29,55.99z M122.51,49
			l-2.43-9.71h-0.64l-2.5,9.71H122.51z"/>
		<path class="st1" d="M143.59,59.17h-10.35V34.19h10.35c4.64,0,7.28,2.57,8.31,4.92v15.13C150.87,56.6,148.23,59.17,143.59,59.17z
			 M142.45,38.51h-3.5v16.34h3.5c1.96,0,3.28-0.86,3.75-2.03V40.54C145.73,39.37,144.41,38.51,142.45,38.51z"/>
		<path class="st1" d="M161.39,34.19v24.98h-5.71V34.19H161.39z"/>
		<path class="st1" d="M174.59,33.66c5.6,0,8.42,3.14,9.46,5.46v15.09c-1.03,2.36-3.82,5.49-9.46,5.49c-5.6,0-8.42-3.14-9.46-5.49
			V39.12C166.17,36.8,168.95,33.66,174.59,33.66z M174.59,55.24c2,0,3.25-1.04,3.75-2.18V40.29c-0.5-1.18-1.75-2.18-3.75-2.18
			c-1.96,0-3.25,1-3.75,2.18v12.77C171.34,54.21,172.62,55.24,174.59,55.24z"/>
	</g>
	
		<rect x="71.96" y="24.34" transform="matrix(-1 -1.224647e-16 1.224647e-16 -1 149.5603 59.9679)" class="st1" width="5.64" height="11.29"/>
	
		<rect x="63.96" y="16.83" transform="matrix(-1 -1.224647e-16 1.224647e-16 -1 133.5678 59.9994)" class="st1" width="5.64" height="26.34"/>
	
		<rect x="55.97" y="8.88" transform="matrix(-1 -1.224647e-16 1.224647e-16 -1 117.5775 60.0918)" class="st1" width="5.64" height="42.33"/>
	
		<rect x="47.97" y="3.42" transform="matrix(-1 -1.224647e-16 1.224647e-16 -1 101.5873 60.4474)" class="st1" width="5.64" height="53.61"/>
	
		<rect x="39.98" y="0.12" transform="matrix(-1 -1.224647e-16 1.224647e-16 -1 85.5971 59.9732)" class="st1" width="5.64" height="59.73"/>
</g>
</svg>
